<?xml version="1.0" encoding="UTF-8" standalone="no"?>
<svg
   xmlns:dc="http://purl.org/dc/elements/1.1/"
   xmlns:cc="http://creativecommons.org/ns#"
   xmlns:rdf="http://www.w3.org/1999/02/22-rdf-syntax-ns#"
   xmlns:svg="http://www.w3.org/2000/svg"
   xmlns="http://www.w3.org/2000/svg"
   viewBox="0 0 313.33334 120"
   height="120"
   width="313.33334"
   xml:space="preserve"
   id="svg2"
   version="1.1"><metadata
     id="metadata8"><rdf:RDF><cc:Work
         rdf:about=""><dc:format>image/svg+xml</dc:format><dc:type
           rdf:resource="http://purl.org/dc/dcmitype/StillImage" /></cc:Work></rdf:RDF></metadata><defs
     id="defs6"><clipPath
       id="clipPath22"
       clipPathUnits="userSpaceOnUse"><path
         id="path20"
         d="M 0,90 H 235 V 0 H 0 Z" /></clipPath></defs><g
     transform="matrix(1.3333333,0,0,-1.3333333,0,120)"
     id="g10"><g
       transform="translate(135,90)"
       id="g12"><path
         id="path14"
         style="fill:#4290b9;fill-opacity:1;fill-rule:nonzero;stroke:none"
         d="M 0,0 V -10 H 24.178 L 0,-30 v -10 h 40 v 10 H 15.688 L 40,-10 V 0 Z" /></g><g
       id="g16"><g
         clip-path="url(#clipPath22)"
         id="g18"><g
           transform="translate(120,62)"
           id="g24"><path
             id="path26"
             style="fill:#4290b9;fill-opacity:1;fill-rule:nonzero;stroke:none"
             d="m 0,0 c 0,-1.104 -0.895,-2 -2,-2 h -16 c -1.104,0 -2,0.896 -2,2 v 16 c 0,1.104 0.896,2 2,2 h 16 c 1.105,0 2,-0.896 2,-2 z m 5,28 h -30 c -2.762,0 -5,-2.239 -5,-5 V -7 c 0,-2.762 2.238,-5 5,-5 H 5 c 2.762,0 5,2.238 5,5 v 30 c 0,2.761 -2.238,5 -5,5" /></g><g
           transform="translate(155,10)"
           id="g28"><path
             id="path30"
             style="fill:#bbbdbf;fill-opacity:1;fill-rule:nonzero;stroke:none"
             d="m 0,0 h -8 c -1.104,0 -2,0.895 -2,2 v 16 c 0,1.104 0.896,2 2,2 H 0 C 5.523,20 10,15.523 10,10 10,4.477 5.523,0 0,0 m 0,30 h -15 c -2.762,0 -5,-2.238 -5,-5 V -5 c 0,-2.762 2.238,-5 5,-5 H 0 c 11.045,0 20,8.953 20,20 0,11.045 -8.955,20 -20,20" /></g><path
           id="path32"
           style="fill:#bbbdbf;fill-opacity:1;fill-rule:nonzero;stroke:none"
           d="m 180,0 h 10 v 40 h -10 z" /><g
           transform="translate(45,90)"
           id="g34"><path
             id="path36"
             style="fill:#4290b9;fill-opacity:1;fill-rule:nonzero;stroke:none"
             d="m 0,0 v -10 h 15 v -30 h 10 v 30 H 40 V 0 Z" /></g><g
           transform="translate(45,40)"
           id="g38"><path
             id="path40"
             style="fill:#bbbdbf;fill-opacity:1;fill-rule:nonzero;stroke:none"
             d="m 0,0 v -10 h 15 v -30 h 10 v 30 H 40 V 0 Z" /></g><path
           id="path42"
           style="fill:#4290b9;fill-opacity:1;fill-rule:nonzero;stroke:none"
           d="M 32.568,70 H 7.431 V 60 h 25.137 z" /><g
           transform="translate(35,50)"
           id="g44"><path
             id="path46"
             style="fill:#4290b9;fill-opacity:1;fill-rule:nonzero;stroke:none"
             d="m 0,0 c 2.762,0 5,2.238 5,5 v 30 c 0,2.761 -2.238,5 -5,5 h -30 c -2.762,0 -5,-2.239 -5,-5 V 5 c 0,-2.762 2.238,-5 5,-5 h 5 v 28 c 0,1.104 0.896,2 2,2 h 16 c 1.104,0 2,-0.896 2,-2 V 0 Z" /></g><g
           transform="translate(225,12)"
           id="g48"><path
             id="path50"
             style="fill:#bbbdbf;fill-opacity:1;fill-rule:nonzero;stroke:none"
             d="m 0,0 c 0,-1.105 -0.895,-2 -2,-2 h -16 c -1.104,0 -2,0.895 -2,2 v 16 c 0,1.104 0.896,2 2,2 h 16 c 1.105,0 2,-0.896 2,-2 z m 5,28 h -30 c -2.762,0 -5,-2.238 -5,-5 V -7 c 0,-2.762 2.238,-5 5,-5 H 5 c 2.762,0 5,2.238 5,5 v 30 c 0,2.762 -2.238,5 -5,5" /></g><g
           transform="translate(95,40)"
           id="g52"><path
             id="path54"
             style="fill:#bbbdbf;fill-opacity:1;fill-rule:nonzero;stroke:none"
             d="m 0,0 c -2.762,0 -5,-2.238 -5,-5 v -30 c 0,-2.762 2.238,-5 5,-5 h 30 c 2.762,0 5,2.238 5,5 v 30 c 0,2.762 -2.238,5 -5,5 h -5 v -28 c 0,-1.105 -0.895,-2 -2,-2 H 7 c -1.104,0 -2,0.895 -2,2 V 0 Z" /></g><g
           transform="translate(40,30)"
           id="g56"><path
             id="path58"
             style="fill:#bbbdbf;fill-opacity:1;fill-rule:nonzero;stroke:none"
             d="M 0,0 V 10 H -30 L -40,0 v -15 h 30 v -5 h -30 v -10 h 30 l 10,10 v 15 h -30 v 5 z" /></g><path
           id="path60"
           style="fill:#4290b9;fill-opacity:1;fill-rule:nonzero;stroke:none"
           d="M 235,90 H 195 V 50 h 40 z" /><g
           transform="translate(232,57.2505)"
           id="g62"><path
             id="path64"
             style="fill:#ffffff;fill-opacity:1;fill-rule:nonzero;stroke:none"
             d="M 0,0 H -10.334 L 0,8.5 v 4.25 H -17 V 8.5 H -6.725 L -17,0 V -4.25 H 0 Z" /></g><g
           transform="translate(210.75,58.1001)"
           id="g66"><path
             id="path68"
             style="fill:#ffffff;fill-opacity:1;fill-rule:nonzero;stroke:none"
             d="m 0,0 c 0,-0.469 -0.381,-0.85 -0.85,-0.85 h -6.8 c -0.469,0 -0.85,0.381 -0.85,0.85 v 6.8 c 0,0.47 0.381,0.85 0.85,0.85 h 6.8 C -0.381,7.65 0,7.27 0,6.8 Z m 2.125,11.9 h -12.75 c -1.174,0 -2.125,-0.951 -2.125,-2.125 v -12.75 c 0,-1.174 0.951,-2.125 2.125,-2.125 h 12.75 c 1.174,0 2.125,0.951 2.125,2.125 v 12.75 c 0,1.174 -0.951,2.125 -2.125,2.125" /></g><g
           transform="translate(215,87)"
           id="g70"><path
             id="path72"
             style="fill:#ffffff;fill-opacity:1;fill-rule:nonzero;stroke:none"
             d="M 0,0 V -4.25 H 6.375 V -17 h 4.25 V -4.25 H 17 V 0 Z" /></g><g
           transform="translate(202.25,78.5)"
           id="g74"><path
             id="path76"
             style="fill:#ffffff;fill-opacity:1;fill-rule:nonzero;stroke:none"
             d="m 0,0 v 3.4 c 0,0.47 0.381,0.85 0.85,0.85 h 6.8 C 8.119,4.25 8.5,3.87 8.5,3.4 V 0 Z M 10.625,8.5 H -2.125 C -3.299,8.5 -4.25,7.549 -4.25,6.375 v -12.75 c 0,-1.173 0.951,-2.125 2.125,-2.125 H 0 v 4.25 H 8.5 V -8.5 h 2.125 c 1.174,0 2.125,0.952 2.125,2.125 v 12.75 c 0,1.174 -0.951,2.125 -2.125,2.125" /></g></g></g></g></svg>